<?xml version="1.0" encoding="utf-8"?>
<!-- Generator: Adobe Illustrator 27.5.0, SVG Export Plug-In . SVG Version: 6.00 Build 0)  -->
<svg version="1.1" id="Layer_1" xmlns="http://www.w3.org/2000/svg" xmlns:xlink="http://www.w3.org/1999/xlink" x="0px" y="0px"
	 viewBox="0 0 91.2 91.2" style="enable-background:new 0 0 91.2 91.2;" xml:space="preserve">
<style type="text/css">
	.st0{fill:#3F358C;}
	.st1{fill:#FFFFFF;}
	.st2{fill:#62BBC3;}
	.st3{fill:#E4900A;stroke:#FFFFFF;stroke-width:0.8355;stroke-miterlimit:10;}
</style>
<g>
	<g>
		<path d="M50.8-149.4c0,4.4-2.8,7-7.6,10c-4.5,2.6-10.3,4.4-17.8,4.4c-19.9-0.1-39.7-16.4-39.7-40.1S5.7-215,25.2-215
			c7.6,0,13.7,1.9,18.1,4.4c4.5,2.9,7.5,5.7,7.5,10c0,4.8-3.8,7.5-7.8,7.5c-3.1,0-5.3-1.6-6.5-2.3s-4.9-3.6-11.1-3.6
			c-12,0-22,10.6-22,24.1c0,13.4,10,24.1,22.3,24.1c5.9,0,9.6-2.9,10.9-3.6c1.2-0.8,3.2-2.3,6.5-2.3C47-156.9,50.8-154.2,50.8-149.4
			z"/>
		<path d="M120.9-143.4c0,4.4-3.2,7.8-7.6,7.8c-2.7,0-4.8-1.2-6.2-3.1l-19.2-24.4h-9.6v19.6c0,4.6-3.7,8.5-8.3,8.5
			c-4.8,0-8.5-3.9-8.5-8.5v-61.4c0-5.4,3.9-9.3,9.3-9.3h20.5c17.5,0,28.8,11.6,28.8,25.7c0,10.1-5.7,18.7-15.4,22.8l14.3,17.1
			C120-147.2,120.9-145.4,120.9-143.4z M78.2-177.4h12.1c7.4,0,13.3-2.4,13.3-11.1c0-8.7-5.9-11.4-13.3-11.4H78.2V-177.4z"/>
		<path d="M216.3-206.6v62.4c0,4.7-3.9,8.6-8.7,8.6c-4.6,0-8.5-3.9-8.5-8.6v-33l-17.7,33.3c-1.6,3-4.3,4.8-7.3,4.8
			c-2.9,0-5.6-1.7-7.2-4.8l-17.8-33.3v33c0,4.7-3.8,8.6-8.4,8.6c-4.8,0-8.7-3.9-8.7-8.6v-62.4c0-5.3,4-7.9,7.7-7.9
			c3.5,0,6.7,2.7,8.4,5.6l26,46.2l26-46.2c1.7-2.9,5-5.6,8.5-5.6C212.3-214.6,216.3-211.9,216.3-206.6z"/>
		<path class="st0" d="M227.5-144.7c0-5.1,4.1-9.3,9.4-9.3c5,0,9.3,4.1,9.3,9.3c0,5.1-4.3,9.4-9.3,9.4
			C231.6-135.3,227.5-139.6,227.5-144.7z"/>
		<path class="st0" d="M323.1-205.9v62.5c0,5.4-3.5,8.2-7.9,8.2c-3.7,0-6.6-1.9-8.7-4.9l-31.9-43.6v40.1c0,4.6-3.7,8.5-8.4,8.5
			c-4.9,0-8.7-3.9-8.7-8.5v-62.8c0-5.3,3.5-8.2,8.1-8.2c3.6,0,6.5,1.9,8.6,4.9l31.7,43.7v-39.9c0-4.7,3.8-8.6,8.4-8.6
			C319.2-214.6,323.1-210.6,323.1-205.9z"/>
		<path class="st0" d="M392.1-167.6c0,6.5-3.5,8.7-10.2,8.7l-30.7-0.4c1.5,6.9,6.9,10.7,14.7,10.7c3.7,0,4.8-0.6,8.1-1.7
			c2.2-0.9,3.9-1.9,6-1.9c3.4,0,5.5,2.5,5.5,5.6c0,2-0.8,4.3-3.9,6.7c-3.9,2.6-9.3,4.5-16.3,4.5c-15.1,0-31-9.1-31-29.4
			s16.9-30,29.7-30S392.1-184.6,392.1-167.6z M351.2-170.2h24.7c-1.1-7.4-6.3-10.3-12.1-10.3S352.3-177.6,351.2-170.2z"/>
		<path class="st0" d="M435.5-143.9c0,5.6-4.9,8.6-13.3,8.6c-8.1,0-16.4-2.6-16.4-19.6v-26.4h-2.7c-4,0-6.6-2.7-6.6-6.4
			c0-3.7,2.6-6.4,6.6-6.4h2.7v-7c0-4.5,3.8-8.2,8.2-8.2c4.5,0,8.2,3.7,8.2,8.2v7h6.9c4,0,6.5,2.7,6.5,6.4c0,3.7-2.5,6.4-6.5,6.4
			h-6.9v27c0,3.2,1,4.9,3.4,4.9c1.1,0,3-0.4,4.3-0.3C433.3-149.9,435.5-147.6,435.5-143.9z"/>
	</g>
</g>
<g>
	<g>
		<path class="st1" d="M50.8,226.1c0,4.4-2.8,7-7.6,10c-4.5,2.6-10.3,4.4-17.8,4.4c-19.9,0-39.7-16.4-39.7-40s20-39.9,39.5-39.9
			c7.6,0,13.7,1.9,18.1,4.4c4.5,2.9,7.5,5.7,7.5,10c0,4.8-3.8,7.5-7.8,7.5c-3.1,0-5.3-1.6-6.5-2.3s-4.9-3.6-11.1-3.6
			c-12,0-22,10.6-22,24.1c0,13.4,10,24.1,22.3,24.1c5.9,0,9.6-2.9,10.9-3.6c1.2-0.8,3.2-2.3,6.5-2.3C47,218.6,50.8,221.3,50.8,226.1
			z"/>
		<path class="st1" d="M120.9,232.2c0,4.4-3.2,7.8-7.6,7.8c-2.7,0-4.8-1.2-6.2-3.1l-19.2-24.4h-9.6v19.6c0,4.6-3.7,8.5-8.3,8.5
			c-4.8,0-8.5-3.9-8.5-8.5v-61.4c0-5.4,3.9-9.3,9.3-9.3h20.5c17.5,0,28.8,11.6,28.8,25.7c0,10.1-5.7,18.7-15.4,22.8L119,227
			C120,228.4,120.9,230.2,120.9,232.2z M78.2,198.2h12.1c7.4,0,13.3-2.4,13.3-11.1s-5.9-11.4-13.3-11.4H78.2V198.2z"/>
		<path class="st1" d="M216.3,169v62.4c0,4.7-3.9,8.6-8.7,8.6c-4.6,0-8.5-3.9-8.5-8.6v-33l-17.7,33.3c-1.6,3-4.3,4.8-7.3,4.8
			c-2.9,0-5.6-1.7-7.2-4.8l-17.8-33.3v33c0,4.7-3.8,8.6-8.4,8.6c-4.8,0-8.7-3.9-8.7-8.6V169c0-5.3,4-7.9,7.7-7.9
			c3.5,0,6.7,2.7,8.4,5.6l26,46.2l26-46.2c1.7-2.9,5-5.6,8.5-5.6C212.3,161,216.3,163.7,216.3,169z"/>
		<path class="st1" d="M227.5,230.8c0-5.1,4.1-9.3,9.4-9.3c5,0,9.3,4.1,9.3,9.3c0,5.1-4.3,9.4-9.3,9.4
			C231.6,240.2,227.5,236,227.5,230.8z"/>
		<path class="st1" d="M323.1,169.6v62.5c0,5.4-3.5,8.2-7.9,8.2c-3.7,0-6.6-1.9-8.7-4.9l-31.9-43.6v40.1c0,4.6-3.7,8.5-8.4,8.5
			c-4.9,0-8.7-3.9-8.7-8.5v-62.7c0-5.3,3.5-8.2,8.1-8.2c3.6,0,6.5,1.9,8.6,4.9l31.9,43.6v-39.9c0-4.7,3.8-8.6,8.4-8.6
			C319.2,161,323.1,164.9,323.1,169.6z"/>
		<path class="st1" d="M392.1,208c0,6.5-3.5,8.7-10.2,8.7l-30.7-0.4c1.5,6.9,6.9,10.7,14.7,10.7c3.7,0,4.8-0.6,8.1-1.7
			c2.2-0.9,3.9-1.9,6-1.9c3.4,0,5.5,2.5,5.5,5.6c0,2-0.8,4.3-3.9,6.7c-3.9,2.6-9.3,4.5-16.3,4.5c-15.1,0-31-9.1-31-29.4
			s16.9-30,29.7-30S392.1,191,392.1,208z M351.2,205.3h24.7c-1.1-7.4-6.3-10.3-12.1-10.3S352.3,197.9,351.2,205.3z"/>
		<path class="st1" d="M435.5,231.6c0,5.6-4.9,8.6-13.3,8.6c-8.1,0-16.4-2.6-16.4-19.6v-26.4h-2.7c-4,0-6.6-2.7-6.6-6.4
			s2.6-6.4,6.6-6.4h2.7v-7c0-4.5,3.8-8.2,8.2-8.2c4.5,0,8.2,3.7,8.2,8.2v7h6.9c4,0,6.5,2.7,6.5,6.4s-2.5,6.4-6.5,6.4h-6.9v27
			c0,3.2,1,4.9,3.4,4.9c1.1,0,3-0.4,4.3-0.3C433.3,225.7,435.5,227.9,435.5,231.6z"/>
	</g>
</g>
<path class="st1" d="M76.4,90.9H14.7c-8,0-14.4-6.5-14.4-14.4V14.7c0-8,6.5-14.4,14.4-14.4h61.7c8,0,14.4,6.5,14.4,14.4v61.7
	C90.9,84.4,84.4,90.9,76.4,90.9z"/>
<g>
	<g>
		<path class="st2" d="M19.6,23h13.1l-2.8,15.3c1.5-1.3,3.2-2.3,4.9-2.9c1.8-0.6,3.6-1,5.6-1c4.1,0,7.2,1.4,9.4,4.2
			c2.2,2.8,2.8,6.8,1.8,12.1c-0.6,3.5-1.8,6.6-3.6,9.3c-1.7,2.7-3.8,4.7-6.2,6c-2.4,1.3-4.9,2-7.6,2c-2.3,0-4.3-0.5-6-1.4
			c-1.3-0.7-2.6-2.1-3.9-4.1l-0.9,4.7H11.4L19.6,23z M27.3,51.2c-0.5,2.8-0.3,4.8,0.5,6c0.9,1.2,2.1,1.9,3.8,1.9
			c1.5,0,3-0.6,4.2-1.8s2.2-3.3,2.7-6.1c0.5-2.5,0.3-4.4-0.5-5.6c-0.8-1.2-1.9-1.8-3.4-1.8c-1.8,0-3.3,0.6-4.6,1.9
			C28.7,46.8,27.8,48.6,27.3,51.2z"/>
	</g>
</g>
<g>
	<g>
		<path class="st3" d="M74.8,68.8h-40C36,65.1,38,61.5,41,58.2c2.9-3.3,8-7.2,15.2-11.7c4.4-2.8,7.3-4.8,8.7-6.3
			c1.4-1.4,2.2-2.8,2.4-4.1c0.3-1.4-0.1-2.6-1-3.6c-0.9-1-2.2-1.5-3.8-1.5c-1.7,0-2.8,0.6-4.1,1.6c-1.3,1-1.5,3.6-1.5,5.3H43.4
			c0-3.6,0.9-7.4,2.7-9.4c1.8-2,4-3.5,6.8-4.6c2.7-1.1,6.4-1.6,10.8-1.6c4.7,0,8.2,0.5,10.7,1.5c2.4,1,4.2,2.5,5.5,5.1
			c1.3,2.6,1.4,6,0.9,8.6c-0.5,2.8-1.7,5.1-4.3,7.7c-2.4,2.3-5.8,3.6-10.9,6.6c-3,1.8-5,3-6.1,3.7c-1,0.7-2.3,1.6-3.7,2.8h20.8
			L74.8,68.8z"/>
	</g>
</g>
</svg>
