<?xml version="1.0" encoding="utf-8"?>
<!-- Generator: Adobe Illustrator 26.3.1, SVG Export Plug-In . SVG Version: 6.00 Build 0)  -->
<svg version="1.1" id="Layer_1" xmlns="http://www.w3.org/2000/svg" xmlns:xlink="http://www.w3.org/1999/xlink" x="0px" y="0px"
	 viewBox="0 0 449.8 80" style="enable-background:new 0 0 449.8 80;" xml:space="preserve">
<style type="text/css">
	.st0{fill:#FFFFFF;}
	.st1{fill:#3F358C;}
</style>
<g>
	<g>
		<path class="st0" d="M65.1,65.6c0,4.4-2.8,7-7.6,10c-4.5,2.6-10.3,4.4-17.8,4.4C19.8,79.9,0,63.6,0,39.9S20,0,39.5,0
			c7.6,0,13.7,1.9,18.1,4.4c4.5,2.9,7.5,5.7,7.5,10c0,4.8-3.8,7.5-7.8,7.5c-3.1,0-5.3-1.6-6.5-2.3c-1.2-0.7-4.9-3.6-11.1-3.6
			c-12,0-22,10.6-22,24.1c0,13.4,10,24.1,22.3,24.1c5.9,0,9.6-2.9,10.9-3.6c1.2-0.8,3.2-2.3,6.5-2.3C61.3,58.1,65.1,60.8,65.1,65.6z
			"/>
		<path class="st0" d="M135.2,71.6c0,4.4-3.2,7.8-7.6,7.8c-2.7,0-4.8-1.2-6.2-3.1l-19.2-24.4h-9.6v19.6c0,4.6-3.7,8.5-8.3,8.5
			c-4.8,0-8.5-3.9-8.5-8.5V10.1c0-5.4,3.9-9.3,9.3-9.3h20.5c17.5,0,28.8,11.6,28.8,25.7c0,10.1-5.7,18.7-15.4,22.8l14.3,17.1
			C134.3,67.8,135.2,69.6,135.2,71.6z M92.5,37.6h12.1c7.4,0,13.3-2.4,13.3-11.1s-5.9-11.4-13.3-11.4H92.5V37.6z"/>
		<path class="st0" d="M230.6,8.4v62.4c0,4.7-3.9,8.6-8.7,8.6c-4.6,0-8.5-3.9-8.5-8.6v-33l-17.7,33.3c-1.6,3-4.3,4.8-7.3,4.8
			c-2.9,0-5.6-1.7-7.2-4.8l-17.8-33.3v33c0,4.7-3.8,8.6-8.4,8.6c-4.8,0-8.7-3.9-8.7-8.6V8.4c0-5.3,4-7.9,7.7-7.9
			c3.5,0,6.7,2.7,8.4,5.6l26,46.2l26-46.2c1.7-2.9,5-5.6,8.5-5.6C226.6,0.4,230.6,3.1,230.6,8.4z"/>
		<path class="st0" d="M241.8,70.3c0-5.1,4.1-9.3,9.4-9.3c5,0,9.3,4.1,9.3,9.3c0,5.1-4.3,9.4-9.3,9.4
			C245.9,79.7,241.8,75.4,241.8,70.3z"/>
		<path class="st0" d="M337.4,9.1v62.5c0,5.4-3.5,8.2-7.9,8.2c-3.7,0-6.6-1.9-8.7-4.9l-31.9-43.6v40.1c0,4.6-3.7,8.5-8.4,8.5
			c-4.9,0-8.7-3.9-8.7-8.5V8.6c0-5.3,3.5-8.2,8.1-8.2c3.6,0,6.5,1.9,8.6,4.9L320.2,49V9.1c0-4.7,3.8-8.6,8.4-8.6
			C333.5,0.4,337.4,4.4,337.4,9.1z"/>
		<path class="st0" d="M406.4,47.4c0,6.5-3.5,8.7-10.2,8.7l-30.7-0.4c1.5,6.9,6.9,10.7,14.7,10.7c3.7,0,4.8-0.6,8.1-1.7
			c2.2-0.9,3.9-1.9,6-1.9c3.4,0,5.5,2.5,5.5,5.6c0,2-0.8,4.3-3.9,6.7c-3.9,2.6-9.3,4.5-16.3,4.5c-15.1,0-31-9.1-31-29.4
			s16.9-30,29.7-30S406.4,30.4,406.4,47.4z M365.5,44.8h24.7c-1.1-7.4-6.3-10.3-12.1-10.3S366.6,37.4,365.5,44.8z"/>
		<path class="st0" d="M449.8,71.1c0,5.6-4.9,8.6-13.3,8.6c-8.1,0-16.4-2.6-16.4-19.6V33.7h-2.7c-4,0-6.6-2.7-6.6-6.4
			s2.6-6.4,6.6-6.4h2.7v-7c0-4.5,3.8-8.2,8.2-8.2c4.5,0,8.2,3.7,8.2,8.2v7h6.9c4,0,6.5,2.7,6.5,6.4s-2.5,6.4-6.5,6.4h-6.9v27
			c0,3.2,1,4.9,3.4,4.9c1.1,0,3-0.4,4.3-0.3C447.6,65.1,449.8,67.4,449.8,71.1z"/>
	</g>
</g>
<g>
	<g>
		<path d="M65.1-32.7c0,4.4-2.8,7-7.6,10c-4.5,2.6-10.3,4.4-17.8,4.4C19.8-18.4,0-34.7,0-58.3s20-39.9,39.5-39.9
			c7.6,0,13.7,1.9,18.1,4.4c4.5,2.9,7.5,5.7,7.5,10c0,4.8-3.8,7.5-7.8,7.5c-3.1,0-5.3-1.6-6.5-2.3c-1.2-0.7-4.9-3.6-11.1-3.6
			c-12,0-22,10.6-22,24.1c0,13.4,10,24.1,22.3,24.1c5.9,0,9.6-2.9,10.9-3.6c1.2-0.8,3.2-2.3,6.5-2.3C61.3-40.2,65.1-37.5,65.1-32.7z
			"/>
		<path d="M135.2-26.7c0,4.4-3.2,7.8-7.6,7.8c-2.7,0-4.8-1.2-6.2-3.1l-19.2-24.4h-9.6v19.6c0,4.6-3.7,8.5-8.3,8.5
			c-4.8,0-8.5-3.9-8.5-8.5v-61.4c0-5.4,3.9-9.3,9.3-9.3h20.5c17.5,0,28.8,11.6,28.8,25.7c0,10.1-5.7,18.7-15.4,22.8l14.3,17.1
			C134.3-30.5,135.2-28.7,135.2-26.7z M92.5-60.7h12.1c7.4,0,13.3-2.4,13.3-11.1s-5.9-11.4-13.3-11.4H92.5V-60.7z"/>
		<path d="M230.6-89.9v62.4c0,4.7-3.9,8.6-8.7,8.6c-4.6,0-8.5-3.9-8.5-8.6v-33l-17.7,33.3c-1.6,3-4.3,4.8-7.3,4.8
			c-2.9,0-5.6-1.7-7.2-4.8l-17.8-33.3v33c0,4.7-3.8,8.6-8.4,8.6c-4.8,0-8.7-3.9-8.7-8.6v-62.4c0-5.3,4-7.9,7.7-7.9
			c3.5,0,6.7,2.7,8.4,5.6l26,46.2l26-46.2c1.7-2.9,5-5.6,8.5-5.6C226.6-97.8,230.6-95.2,230.6-89.9z"/>
		<path class="st1" d="M241.8-28c0-5.1,4.1-9.3,9.4-9.3c5,0,9.3,4.1,9.3,9.3c0,5.1-4.3,9.4-9.3,9.4C245.9-18.6,241.8-22.9,241.8-28z
			"/>
		<path class="st1" d="M337.4-89.2v62.5c0,5.4-3.5,8.2-7.9,8.2c-3.7,0-6.6-1.9-8.7-4.9l-31.9-43.6V-27c0,4.6-3.7,8.5-8.4,8.5
			c-4.9,0-8.7-3.9-8.7-8.5v-62.7c0-5.3,3.5-8.2,8.1-8.2c3.6,0,6.5,1.9,8.6,4.9l31.9,43.6v-39.9c0-4.7,3.8-8.6,8.4-8.6
			C333.5-97.8,337.4-93.9,337.4-89.2z"/>
		<path class="st1" d="M406.4-50.8c0,6.5-3.5,8.7-10.2,8.7l-30.7-0.4c1.5,6.9,6.9,10.7,14.7,10.7c3.7,0,4.8-0.6,8.1-1.7
			c2.2-0.9,3.9-1.9,6-1.9c3.4,0,5.5,2.5,5.5,5.6c0,2-0.8,4.3-3.9,6.7c-3.9,2.6-9.3,4.5-16.3,4.5c-15.1,0-31-9.1-31-29.4
			s16.9-30,29.7-30S406.4-67.9,406.4-50.8z M365.5-53.5h24.7c-1.1-7.4-6.3-10.3-12.1-10.3S366.6-60.9,365.5-53.5z"/>
		<path class="st1" d="M449.8-27.2c0,5.6-4.9,8.6-13.3,8.6c-8.1,0-16.4-2.6-16.4-19.6v-26.4h-2.7c-4,0-6.6-2.7-6.6-6.4
			s2.6-6.4,6.6-6.4h2.7v-7c0-4.5,3.8-8.2,8.2-8.2c4.5,0,8.2,3.7,8.2,8.2v7h6.9c4,0,6.5,2.7,6.5,6.4s-2.5,6.4-6.5,6.4h-6.9v27
			c0,3.2,1,4.9,3.4,4.9c1.1,0,3-0.4,4.3-0.3C447.6-33.2,449.8-30.9,449.8-27.2z"/>
	</g>
</g>
<g>
	<g>
		<path class="st0" d="M65.1,226.1c0,4.4-2.8,7-7.6,10c-4.5,2.6-10.3,4.4-17.8,4.4C19.8,240.5,0,224.1,0,200.5s20-39.9,39.5-39.9
			c7.6,0,13.7,1.9,18.1,4.4c4.5,2.9,7.5,5.7,7.5,10c0,4.8-3.8,7.5-7.8,7.5c-3.1,0-5.3-1.6-6.5-2.3c-1.2-0.7-4.9-3.6-11.1-3.6
			c-12,0-22,10.6-22,24.1c0,13.4,10,24.1,22.3,24.1c5.9,0,9.6-2.9,10.9-3.6c1.2-0.8,3.2-2.3,6.5-2.3
			C61.3,218.6,65.1,221.3,65.1,226.1z"/>
		<path class="st0" d="M135.2,232.2c0,4.4-3.2,7.8-7.6,7.8c-2.7,0-4.8-1.2-6.2-3.1l-19.2-24.4h-9.6v19.6c0,4.6-3.7,8.5-8.3,8.5
			c-4.8,0-8.5-3.9-8.5-8.5v-61.4c0-5.4,3.9-9.3,9.3-9.3h20.5c17.5,0,28.8,11.6,28.8,25.7c0,10.1-5.7,18.7-15.4,22.8l14.3,17.1
			C134.3,228.4,135.2,230.2,135.2,232.2z M92.5,198.2h12.1c7.4,0,13.3-2.4,13.3-11.1s-5.9-11.4-13.3-11.4H92.5V198.2z"/>
		<path class="st0" d="M230.6,169v62.4c0,4.7-3.9,8.6-8.7,8.6c-4.6,0-8.5-3.9-8.5-8.6v-33l-17.7,33.3c-1.6,3-4.3,4.8-7.3,4.8
			c-2.9,0-5.6-1.7-7.2-4.8l-17.8-33.3v33c0,4.7-3.8,8.6-8.4,8.6c-4.8,0-8.7-3.9-8.7-8.6V169c0-5.3,4-7.9,7.7-7.9
			c3.5,0,6.7,2.7,8.4,5.6l26,46.2l26-46.2c1.7-2.9,5-5.6,8.5-5.6C226.6,161,230.6,163.7,230.6,169z"/>
		<path class="st0" d="M241.8,230.8c0-5.1,4.1-9.3,9.4-9.3c5,0,9.3,4.1,9.3,9.3c0,5.1-4.3,9.4-9.3,9.4
			C245.9,240.2,241.8,236,241.8,230.8z"/>
		<path class="st0" d="M337.4,169.6v62.5c0,5.4-3.5,8.2-7.9,8.2c-3.7,0-6.6-1.9-8.7-4.9l-31.9-43.6v40.1c0,4.6-3.7,8.5-8.4,8.5
			c-4.9,0-8.7-3.9-8.7-8.5v-62.7c0-5.3,3.5-8.2,8.1-8.2c3.6,0,6.5,1.9,8.6,4.9l31.9,43.6v-39.9c0-4.7,3.8-8.6,8.4-8.6
			C333.5,161,337.4,164.9,337.4,169.6z"/>
		<path class="st0" d="M406.4,208c0,6.5-3.5,8.7-10.2,8.7l-30.7-0.4c1.5,6.9,6.9,10.7,14.7,10.7c3.7,0,4.8-0.6,8.1-1.7
			c2.2-0.9,3.9-1.9,6-1.9c3.4,0,5.5,2.5,5.5,5.6c0,2-0.8,4.3-3.9,6.7c-3.9,2.6-9.3,4.5-16.3,4.5c-15.1,0-31-9.1-31-29.4
			s16.9-30,29.7-30S406.4,191,406.4,208z M365.5,205.3h24.7c-1.1-7.4-6.3-10.3-12.1-10.3S366.6,197.9,365.5,205.3z"/>
		<path class="st0" d="M449.8,231.6c0,5.6-4.9,8.6-13.3,8.6c-8.1,0-16.4-2.6-16.4-19.6v-26.4h-2.7c-4,0-6.6-2.7-6.6-6.4
			s2.6-6.4,6.6-6.4h2.7v-7c0-4.5,3.8-8.2,8.2-8.2c4.5,0,8.2,3.7,8.2,8.2v7h6.9c4,0,6.5,2.7,6.5,6.4s-2.5,6.4-6.5,6.4h-6.9v27
			c0,3.2,1,4.9,3.4,4.9c1.1,0,3-0.4,4.3-0.3C447.6,225.7,449.8,227.9,449.8,231.6z"/>
	</g>
</g>
</svg>
